# Blender v3.2.2 OBJ File: 'hex.blend'
# www.blender.org
mtllib hex.mtl
o Circle
v 0.000000 0.000000 -1.000000
v -0.866025 0.000000 -0.500000
v -0.866025 0.000000 0.500000
v 0.000000 0.000000 1.000000
v 0.866025 0.000000 0.500000
v 0.866025 0.000000 -0.500000
v 0.000000 0.136905 -1.000000
v -0.866025 0.136905 -0.500000
v -0.866025 0.136905 0.500000
v 0.000000 0.136905 1.000000
v 0.866025 0.136905 0.500000
v 0.866025 0.136905 -0.500000
vt 0.500000 1.000000
vt 0.933013 0.750000
vt 0.933013 0.250000
vt 0.500000 0.000000
vt 0.066987 0.250000
vt 0.066987 0.750000
vt 0.500000 1.000000
vt 0.066987 0.750000
vt 0.066987 0.250000
vt 0.500000 0.000000
vt 0.933013 0.250000
vt 0.933013 0.750000
vn 0.0000 -1.0000 0.0000
vn 0.0000 1.0000 -0.0000
vn -1.0000 0.0000 0.0000
vn 1.0000 0.0000 0.0000
vn -0.5000 0.0000 0.8660
vn -0.5000 0.0000 -0.8660
vn 0.5000 0.0000 -0.8660
vn 0.5000 0.0000 0.8660
usemtl None
s off
f 1/1/1 6/2/1 5/3/1 4/4/1 3/5/1 2/6/1
f 7/7/2 8/8/2 9/9/2 10/10/2 11/11/2 12/12/2
f 2/6/3 3/5/3 9/9/3 8/8/3
f 5/3/4 6/2/4 12/12/4 11/11/4
f 3/5/5 4/4/5 10/10/5 9/9/5
f 1/1/6 2/6/6 8/8/6 7/7/6
f 6/2/7 1/1/7 7/7/7 12/12/7
f 4/4/8 5/3/8 11/11/8 10/10/8
